<svg xmlns="http://www.w3.org/2000/svg" viewBox="0 0 2000 700" width="2000" height="700" role="img" aria-label="Billiard Hub tournaments">
  <defs>
    <linearGradient id="bg" x1="0" y1="0" x2="0.35" y2="1">
      <stop offset="0" stop-color="#101B16"/>
      <stop offset="1" stop-color="#050908"/>
    </linearGradient>
    <radialGradient id="glow" cx="0.5" cy="0.5" r="0.5">
      <stop offset="0" stop-color="#C7A66A" stop-opacity="0.26"/>
      <stop offset="1" stop-color="#C7A66A" stop-opacity="0"/>
    </radialGradient>
    <radialGradient id="shade" cx="0.34" cy="0.28" r="0.85">
      <stop offset="0" stop-color="#fff" stop-opacity="0.18"/>
      <stop offset="0.5" stop-color="#fff" stop-opacity="0"/>
      <stop offset="1" stop-color="#000" stop-opacity="0.55"/>
    </radialGradient>
    <radialGradient id="spec" cx="0.5" cy="0.5" r="0.5">
      <stop offset="0" stop-color="#fff" stop-opacity="0.78"/>
      <stop offset="1" stop-color="#fff" stop-opacity="0"/>
    </radialGradient>
    <linearGradient id="fade" x1="0" y1="0" x2="1" y2="0">
      <stop offset="0" stop-color="#050908" stop-opacity="0"/>
      <stop offset="0.34" stop-color="#050908" stop-opacity="0.18"/>
      <stop offset="0.68" stop-color="#050908" stop-opacity="0.72"/>
      <stop offset="1" stop-color="#050908" stop-opacity="0.94"/>
    </linearGradient>
  </defs>

  <rect width="2000" height="700" fill="url(#bg)"/>
  <g stroke="#fff" stroke-opacity="0.04" stroke-width="1.5">
    <path d="M-60 640 L 2060 150"/>
    <path d="M-60 730 L 2060 240"/>
  </g>
  <ellipse cx="420" cy="352" rx="760" ry="480" fill="url(#glow)"/>
  
    <g>
      <ellipse cx="640" cy="422" rx="53.32" ry="9" fill="#000" opacity="0.34"/>
      <circle cx="640" cy="352" r="62" fill="#F2C230"/>
      <circle cx="640" cy="352" r="62" fill="url(#shade)"/>
      <ellipse cx="618.92" cy="327.2" rx="16.12" ry="11.16"
               fill="url(#spec)" transform="rotate(-24 618.92 327.2)"/>
      <circle cx="640" cy="352" r="62" fill="none" stroke="#000" stroke-opacity="0.32" stroke-width="1.6"/>
    </g>
    <g>
      <ellipse cx="528.12" cy="358" rx="53.32" ry="9" fill="#000" opacity="0.34"/>
      <circle cx="528.12" cy="288" r="62" fill="#2F6BD8"/>
      <circle cx="528.12" cy="288" r="62" fill="url(#shade)"/>
      <ellipse cx="507.04" cy="263.2" rx="16.12" ry="11.16"
               fill="url(#spec)" transform="rotate(-24 507.04 263.2)"/>
      <circle cx="528.12" cy="288" r="62" fill="none" stroke="#000" stroke-opacity="0.32" stroke-width="1.6"/>
    </g>
    <g>
      <ellipse cx="528.12" cy="486" rx="53.32" ry="9" fill="#000" opacity="0.34"/>
      <circle cx="528.12" cy="416" r="62" fill="#C0231F"/>
      <circle cx="528.12" cy="416" r="62" fill="url(#shade)"/>
      <ellipse cx="507.04" cy="391.2" rx="16.12" ry="11.16"
               fill="url(#spec)" transform="rotate(-24 507.04 391.2)"/>
      <circle cx="528.12" cy="416" r="62" fill="none" stroke="#000" stroke-opacity="0.32" stroke-width="1.6"/>
    </g>
    <g>
      <ellipse cx="416.24" cy="294" rx="53.32" ry="9" fill="#000" opacity="0.34"/>
      <circle cx="416.24" cy="224" r="62" fill="#6D3FBF"/>
      <circle cx="416.24" cy="224" r="62" fill="url(#shade)"/>
      <ellipse cx="395.16" cy="199.2" rx="16.12" ry="11.16"
               fill="url(#spec)" transform="rotate(-24 395.16 199.2)"/>
      <circle cx="416.24" cy="224" r="62" fill="none" stroke="#000" stroke-opacity="0.32" stroke-width="1.6"/>
    </g>
    <g>
      <ellipse cx="416.24" cy="422" rx="53.32" ry="9" fill="#000" opacity="0.34"/>
      <circle cx="416.24" cy="352" r="62" fill="#E07A2B"/>
      <circle cx="416.24" cy="352" r="62" fill="url(#shade)"/>
      <ellipse cx="395.16" cy="327.2" rx="16.12" ry="11.16"
               fill="url(#spec)" transform="rotate(-24 395.16 327.2)"/>
      <circle cx="416.24" cy="352" r="62" fill="none" stroke="#000" stroke-opacity="0.32" stroke-width="1.6"/>
    </g>
    <g>
      <ellipse cx="416.24" cy="550" rx="53.32" ry="9" fill="#000" opacity="0.34"/>
      <circle cx="416.24" cy="480" r="62" fill="#1F8A4C"/>
      <circle cx="416.24" cy="480" r="62" fill="url(#shade)"/>
      <ellipse cx="395.16" cy="455.2" rx="16.12" ry="11.16"
               fill="url(#spec)" transform="rotate(-24 395.16 455.2)"/>
      <circle cx="416.24" cy="480" r="62" fill="none" stroke="#000" stroke-opacity="0.32" stroke-width="1.6"/>
    </g>
    <g>
      <ellipse cx="304.36" cy="230" rx="53.32" ry="9" fill="#000" opacity="0.34"/>
      <circle cx="304.36" cy="160" r="62" fill="#8B1A2B"/>
      <circle cx="304.36" cy="160" r="62" fill="url(#shade)"/>
      <ellipse cx="283.28000000000003" cy="135.2" rx="16.12" ry="11.16"
               fill="url(#spec)" transform="rotate(-24 283.28000000000003 135.2)"/>
      <circle cx="304.36" cy="160" r="62" fill="none" stroke="#000" stroke-opacity="0.32" stroke-width="1.6"/>
    </g>
    <g>
      <ellipse cx="304.36" cy="358" rx="53.32" ry="9" fill="#000" opacity="0.34"/>
      <circle cx="304.36" cy="288" r="62" fill="#23262B"/>
      <circle cx="304.36" cy="288" r="62" fill="url(#shade)"/>
      <ellipse cx="283.28000000000003" cy="263.2" rx="16.12" ry="11.16"
               fill="url(#spec)" transform="rotate(-24 283.28000000000003 263.2)"/>
      <circle cx="304.36" cy="288" r="62" fill="none" stroke="#000" stroke-opacity="0.32" stroke-width="1.6"/>
    </g>
    <g>
      <ellipse cx="304.36" cy="486" rx="53.32" ry="9" fill="#000" opacity="0.34"/>
      <circle cx="304.36" cy="416" r="62" fill="#F2EFE6"/>
      <circle cx="304.36" cy="416" r="62" fill="url(#shade)"/>
      <ellipse cx="283.28000000000003" cy="391.2" rx="16.12" ry="11.16"
               fill="url(#spec)" transform="rotate(-24 283.28000000000003 391.2)"/>
      <circle cx="304.36" cy="416" r="62" fill="none" stroke="#000" stroke-opacity="0.32" stroke-width="1.6"/>
    </g>
    <g>
      <ellipse cx="304.36" cy="614" rx="53.32" ry="9" fill="#000" opacity="0.34"/>
      <circle cx="304.36" cy="544" r="62" fill="#2AA5C7"/>
      <circle cx="304.36" cy="544" r="62" fill="url(#shade)"/>
      <ellipse cx="283.28000000000003" cy="519.2" rx="16.12" ry="11.16"
               fill="url(#spec)" transform="rotate(-24 283.28000000000003 519.2)"/>
      <circle cx="304.36" cy="544" r="62" fill="none" stroke="#000" stroke-opacity="0.32" stroke-width="1.6"/>
    </g>
  <!-- محوشدگی به سمتِ راست تا تیتر و جستجوی صفحه رویش خوانا بماند -->
  <rect width="2000" height="700" fill="url(#fade)"/>
</svg>
